<svg xmlns="http://www.w3.org/2000/svg" width="208" height="275" fill="none"><path fill="#EBF3FA" d="M0 0h208v275H0z" style="fill:#ebf3fa;fill:color(display-p3 .9216 .9529 .9804);fill-opacity:1"/><path fill="#F2FAFF" d="M-3964-815c0-1.104.9-2 2-2h5343c1.1 0 2 .895 2 2v2725c0 1.1-.9 2-2 2h-5343c-1.1 0-2-.9-2-2z" style="fill:#f2faff;fill:color(display-p3 .949 .9804 1);fill-opacity:1"/><path fill="#fff" fill-opacity=".1" d="M-3962-816h5343v-2h-5343zm5344 1v2725h2V-815zm-1 2726h-5343v2h5343zm-5344-1V-815h-2v2725zm1 1c-.55 0-1-.45-1-1h-2c0 1.66 1.34 3 3 3zm5344-1c0 .55-.45 1-1 1v2c1.66 0 3-1.34 3-3zm-1-2726c.55 0 1 .448 1 1h2c0-1.657-1.34-3-3-3zm-5343-2c-1.66 0-3 1.343-3 3h2c0-.552.45-1 1-1z" style="fill:#fff;fill-opacity:.1"/><path fill="#3E9658" d="M133 59H0v133h133z" style="fill:#3e9658;fill:color(display-p3 .2438 .5867 .3467);fill-opacity:1"/><path fill="#2A64AA" d="M208 0H75v133h133z" style="fill:#2a64aa;fill:color(display-p3 .1645 .3904 .6664);fill-opacity:1"/><path fill="#E32020" d="M174 178H86v97h88z" style="fill:#e32020;fill:color(display-p3 .8917 .1272 .1272);fill-opacity:1"/></svg>