<svg xmlns="http://www.w3.org/2000/svg" width="100" height="100" fill="none"><g clip-path="url(#a)"><path fill="#090E12" d="M2.333 27.358q0-10.4 7.259-17.658 7.366-7.367 17.766-7.367l-.108 6.5q-7.692 0-13.108 5.417-5.31 5.308-5.309 13zm16.792 53.084q-9.858-9.86-9.967-23.617 0-13.758 9.859-23.617l9.533-9.533 3.575 3.575q2.275 2.275 2.275 5.417.108 3.141-2.275 5.525l-7.15 7.15 3.467 3.791q2.925 2.925 2.925 7.15 0 4.117-2.925 7.042l-2.167 2.167 3.683 3.683 2.167-2.167q4.442-4.44 4.442-10.725t-4.442-10.725l3.575-3.683q2.275-2.275 3.25-5.092.975-2.925.433-5.633l20.475-20.475 4.659 4.658-26.109 26.109 6.609 6.608 32.175-32.067 4.55 4.55L49.675 52.6l6.608 6.717 29.142-29.142 4.55 4.658-29.033 29.034 6.608 6.716 22.858-22.858 4.55 4.658-28.383 28.384q-9.858 9.858-23.725 9.75-13.758-.109-23.725-10.075m53.517 17.225.108-6.5q7.692 0 13-5.309 5.417-5.416 5.417-13.108l6.5-.108q0 10.4-7.367 17.766-7.258 7.26-17.658 7.259" style="fill:#090e12;fill:color(display-p3 .0353 .0549 .0706);fill-opacity:1"/></g><defs><clipPath id="a"><path fill="#fff" d="M0 0h100v100H0z" style="fill:#fff;fill-opacity:1"/></clipPath></defs></svg>