<svg width="100" height="100" viewBox="0 0 100 100" fill="none" xmlns="http://www.w3.org/2000/svg">
    <g clip-path="url(#clip0_97_156)">
    <path d="M97 3H3V97H97V3Z" stroke="#0F1ECF" style="stroke:var(--text-neutral);stroke-opacity:1;" stroke-width="12"/>
    <path d="M30.9178 23.1563H27.1848C27.1167 22.6734 26.9774 22.2444 26.7672 21.8694C26.557 21.4887 26.2871 21.1648 25.9576 20.8978C25.628 20.6308 25.2473 20.4262 24.8155 20.2842C24.3894 20.1421 23.9263 20.0711 23.4263 20.0711C22.5229 20.0711 21.736 20.2955 21.0655 20.7444C20.3951 21.1876 19.8752 21.8353 19.5059 22.6876C19.1365 23.5342 18.9519 24.5626 18.9519 25.7728C18.9519 27.0171 19.1365 28.0626 19.5059 28.9092C19.8809 29.7558 20.4036 30.395 21.074 30.8268C21.7445 31.2586 22.5201 31.4745 23.4008 31.4745C23.8951 31.4745 24.3525 31.4092 24.773 31.2785C25.199 31.1478 25.5769 30.9575 25.9064 30.7075C26.236 30.4518 26.5087 30.1421 26.7246 29.7785C26.9462 29.4148 27.0996 29.0001 27.1848 28.5342L30.9178 28.5512C30.8212 29.3523 30.5797 30.1251 30.1934 30.8694C29.8127 31.608 29.2985 32.27 28.6508 32.8552C28.0087 33.4347 27.2417 33.895 26.3496 34.2359C25.4632 34.5711 24.4604 34.7387 23.3411 34.7387C21.7843 34.7387 20.3922 34.3864 19.1649 33.6819C17.9434 32.9773 16.9774 31.9575 16.2672 30.6222C15.5627 29.287 15.2104 27.6705 15.2104 25.7728C15.2104 23.8694 15.5684 22.2501 16.2843 20.9148C17.0002 19.5796 17.9718 18.5626 19.199 17.8637C20.4264 17.1592 21.807 16.8069 23.3411 16.8069C24.3524 16.8069 25.2899 16.9489 26.1536 17.233C27.023 17.5171 27.7928 17.9319 28.4633 18.4773C29.1337 19.0171 29.6792 19.6791 30.0996 20.4631C30.5257 21.2472 30.7985 22.145 30.9178 23.1563ZM37.2289 34.7472C36.3936 34.7472 35.6493 34.6023 34.9959 34.3126C34.3425 34.0171 33.8255 33.5825 33.4448 33.0086C33.0698 32.4291 32.8823 31.7075 32.8823 30.8438C32.8823 30.1166 33.0158 29.5058 33.2828 29.0114C33.5499 28.5171 33.9135 28.1194 34.3738 27.8183C34.834 27.5171 35.3567 27.2898 35.9419 27.1364C36.5328 26.983 37.1522 26.8751 37.7999 26.8126C38.5613 26.733 39.1749 26.6592 39.6408 26.591C40.1067 26.5171 40.4448 26.4092 40.655 26.2671C40.8652 26.1251 40.9703 25.9148 40.9703 25.6364V25.5853C40.9703 25.0455 40.7999 24.6279 40.459 24.3325C40.1238 24.037 39.6465 23.8893 39.0272 23.8893C38.3738 23.8893 37.8539 24.0342 37.4675 24.3239C37.0811 24.608 36.8255 24.966 36.7005 25.3978L33.3425 25.1251C33.513 24.3296 33.8482 23.6421 34.3482 23.0626C34.8482 22.4773 35.4931 22.0285 36.2828 21.716C37.0783 21.3978 37.9988 21.2387 39.0442 21.2387C39.7715 21.2387 40.4675 21.3239 41.1323 21.4944C41.8027 21.6648 42.3965 21.9291 42.9135 22.287C43.4363 22.645 43.8482 23.1052 44.1493 23.6677C44.4505 24.2245 44.601 24.8921 44.601 25.6705V34.5001H41.1578V32.6847H41.0556C40.8453 33.0938 40.5641 33.4546 40.2118 33.7671C39.8596 34.0739 39.4363 34.3154 38.9419 34.4916C38.4476 34.662 37.8766 34.7472 37.2289 34.7472ZM38.2687 32.2416C38.8027 32.2416 39.2743 32.1364 39.6834 31.9262C40.0925 31.7103 40.4135 31.4205 40.6465 31.0569C40.8794 30.6933 40.9959 30.2813 40.9959 29.8211V28.4319C40.8823 28.5058 40.726 28.5739 40.5272 28.6364C40.334 28.6933 40.1152 28.7472 39.8709 28.7984C39.6266 28.8438 39.3823 28.8864 39.138 28.9262C38.8936 28.9603 38.6721 28.9916 38.4732 29.02C38.0471 29.0825 37.6749 29.1819 37.3567 29.3183C37.0385 29.4546 36.7914 29.6393 36.6152 29.8722C36.4391 30.0995 36.351 30.3836 36.351 30.7245C36.351 31.2188 36.53 31.5967 36.888 31.858C37.2516 32.1137 37.7118 32.2416 38.2687 32.2416ZM47.4178 34.5001V21.4092H50.9377V23.6933H51.0742C51.3127 22.8808 51.7132 22.2671 52.2757 21.8523C52.8382 21.4319 53.4862 21.2217 54.2192 21.2217C54.4007 21.2217 54.5967 21.233 54.8072 21.2558C55.0172 21.2785 55.2017 21.3097 55.3612 21.3495V24.5711C55.1907 24.52 54.9547 24.4745 54.6537 24.4347C54.3527 24.395 54.0767 24.3751 53.8267 24.3751C53.2927 24.3751 52.8157 24.4916 52.3952 24.7245C51.9802 24.9518 51.6507 25.27 51.4062 25.6791C51.1677 26.0881 51.0487 26.5597 51.0487 27.0938V34.5001H47.4178ZM61.4527 34.7131C60.4582 34.7131 59.5577 34.4575 58.7507 33.9461C57.9497 33.4291 57.3132 32.6705 56.8417 31.6705C56.3757 30.6648 56.1432 29.4319 56.1432 27.9717C56.1432 26.4717 56.3842 25.2245 56.8672 24.2302C57.3502 23.2302 57.9922 22.483 58.7937 21.9887C59.6002 21.4887 60.4837 21.2387 61.4442 21.2387C62.1772 21.2387 62.7877 21.3637 63.2767 21.6137C63.7707 21.858 64.1687 22.1648 64.4697 22.5342C64.7767 22.8978 65.0092 23.2558 65.1687 23.608H65.2792V17.0455H68.9017V34.5001H65.3217V32.4035H65.1687C64.9982 32.7671 64.7567 33.1279 64.4442 33.4859C64.1372 33.8381 63.7367 34.1308 63.2422 34.3637C62.7537 34.5967 62.1572 34.7131 61.4527 34.7131ZM62.6032 31.8239C63.1882 31.8239 63.6827 31.6648 64.0862 31.3467C64.4952 31.0228 64.8077 30.5711 65.0237 29.9916C65.2452 29.412 65.3562 28.733 65.3562 27.9546C65.3562 27.1762 65.2482 26.5001 65.0322 25.9262C64.8162 25.3523 64.5037 24.9092 64.0947 24.5967C63.6857 24.2842 63.1882 24.1279 62.6032 24.1279C62.0067 24.1279 61.5037 24.2898 61.0947 24.6137C60.6857 24.9376 60.3757 25.3864 60.1657 25.9603C59.9557 26.5342 59.8502 27.1989 59.8502 27.9546C59.8502 28.716 59.9557 29.3893 60.1657 29.9745C60.3817 30.5541 60.6912 31.0086 61.0947 31.3381C61.5037 31.662 62.0067 31.8239 62.6032 31.8239ZM82.7787 25.1421L79.4547 25.3467C79.3977 25.0626 79.2757 24.8069 79.0882 24.5796C78.9007 24.3467 78.6537 24.162 78.3467 24.0256C78.0457 23.8836 77.6847 23.8126 77.2642 23.8126C76.7017 23.8126 76.2277 23.9319 75.8412 24.1705C75.4547 24.4035 75.2617 24.716 75.2617 25.108C75.2617 25.4205 75.3867 25.6847 75.6367 25.9006C75.8867 26.1166 76.3157 26.2898 76.9237 26.4205L79.2927 26.8978C80.5657 27.1592 81.5142 27.5796 82.1392 28.1592C82.7642 28.7387 83.0767 29.5001 83.0767 30.4433C83.0767 31.3012 82.8242 32.0541 82.3182 32.7018C81.8182 33.3495 81.1307 33.8552 80.2557 34.2188C79.3867 34.5768 78.3837 34.7558 77.2472 34.7558C75.5142 34.7558 74.1337 34.395 73.1052 33.6734C72.0827 32.9461 71.4832 31.9575 71.3072 30.7075L74.8782 30.52C74.9862 31.0484 75.2472 31.4518 75.6622 31.7302C76.0767 32.0029 76.6082 32.1393 77.2557 32.1393C77.8922 32.1393 78.4037 32.0171 78.7902 31.7728C79.1822 31.5228 79.3807 31.2018 79.3867 30.8097C79.3807 30.4802 79.2417 30.2103 78.9692 30.0001C78.6962 29.7842 78.2757 29.6194 77.7077 29.5058L75.4407 29.0541C74.1622 28.7984 73.2102 28.3552 72.5852 27.7245C71.9662 27.0938 71.6562 26.2898 71.6562 25.3126C71.6562 24.4717 71.8837 23.7472 72.3382 23.1393C72.7987 22.5313 73.4432 22.0626 74.2727 21.733C75.1082 21.4035 76.0852 21.2387 77.2047 21.2387C78.8582 21.2387 80.1592 21.5881 81.1082 22.287C82.0627 22.9859 82.6197 23.9376 82.7787 25.1421Z" fill="#0F1ECF" style="fill:#0F1ECF;fill:color(display-p3 0.0588 0.1176 0.8118);fill-opacity:1;"/>
    </g>
    <defs>
    <clipPath id="clip0_97_156">
    <rect width="100" height="100" fill="white" style="fill:var(--background-neutral);fill-opacity:1;"/>
    </clipPath>
    </defs>
    </svg>
    