<svg width="180" height="180" viewBox="0 0 180 180" fill="none" xmlns="http://www.w3.org/2000/svg">
<path d="M1.40625 1.40625H178.594V178.594H1.40625V1.40625Z" fill="#FBFBFB" style="fill:#FBFBFB;fill:color(display-p3 0.9850 0.9850 0.9850);fill-opacity:1;"/>
<path d="M1.40625 1.40625H178.594V178.594H1.40625V1.40625Z" stroke="#E1E1E1" style="stroke:#E1E1E1;stroke:color(display-p3 0.8824 0.8824 0.8824);stroke-opacity:1;" stroke-width="2.8125"/>
<path d="M35.2573 115V65.8911H53.6814C57.197 65.8911 60.1084 66.4514 62.4155 67.572C64.7446 68.6926 66.4805 70.2307 67.623 72.1863C68.7656 74.1199 69.3369 76.2952 69.3369 78.7122C69.3369 80.7336 68.9524 82.4475 68.1833 83.8538C67.4363 85.26 66.4255 86.3916 65.1511 87.2485C63.8987 88.1055 62.4924 88.7317 60.9324 89.1272V89.6216C62.6243 89.6875 64.2502 90.2148 65.8103 91.2036C67.3923 92.1704 68.6887 93.5327 69.6995 95.2905C70.7322 97.0483 71.2485 99.1797 71.2485 101.685C71.2485 104.211 70.6443 106.486 69.4358 108.507C68.2493 110.507 66.4255 112.089 63.9646 113.253C61.5256 114.418 58.4055 115 54.6042 115H35.2573ZM43.3982 108.112H53.5496C56.9333 108.112 59.3613 107.452 60.8335 106.134C62.3276 104.816 63.0747 103.168 63.0747 101.19C63.0747 99.6521 62.7012 98.2788 61.9541 97.0703C61.207 95.8398 60.1414 94.8621 58.7571 94.137C57.3728 93.4119 55.7358 93.0493 53.8462 93.0493H43.3982V108.112ZM43.3982 86.9849H52.7915C54.3955 86.9849 55.8347 86.6772 57.1091 86.062C58.3835 85.4468 59.3943 84.5898 60.1414 83.4912C60.8884 82.3926 61.262 81.0852 61.262 79.5691C61.262 77.6135 60.5698 75.9875 59.1855 74.6912C57.8232 73.3728 55.7578 72.7136 52.9893 72.7136H43.3982V86.9849ZM92.5071 115.758C88.8376 115.758 85.6736 114.978 83.0149 113.418C80.3562 111.858 78.3127 109.661 76.8845 106.826C75.4783 103.97 74.7751 100.63 74.7751 96.8066C74.7751 93.0273 75.4783 89.7095 76.8845 86.853C78.2908 83.9746 80.2793 81.7334 82.8501 80.1294C85.4209 78.5034 88.4312 77.6904 91.8809 77.6904C94.0562 77.6904 96.1436 78.042 98.1431 78.7451C100.143 79.4482 101.922 80.5469 103.482 82.041C105.064 83.5352 106.306 85.4578 107.207 87.8088C108.108 90.1379 108.558 92.9504 108.558 96.2463V98.8501H78.7961V93.28H104.57L100.879 95.0269C100.879 92.8516 100.538 90.9399 99.8569 89.292C99.1978 87.644 98.198 86.3586 96.8577 85.4358C95.5393 84.491 93.9023 84.0186 91.9468 84.0186C89.9692 84.0186 88.2883 84.491 86.9041 85.4358C85.5198 86.3806 84.4541 87.6331 83.707 89.1931C82.9819 90.7312 82.6194 92.4451 82.6194 94.3347V98.158C82.6194 100.553 83.0369 102.585 83.8718 104.255C84.7068 105.925 85.8713 107.2 87.3655 108.079C88.8596 108.958 90.5955 109.397 92.573 109.397C93.8694 109.397 95.0449 109.21 96.0996 108.837C97.1763 108.463 98.0991 107.903 98.8682 107.156C99.6592 106.409 100.252 105.486 100.648 104.387L108.097 105.475C107.569 107.54 106.603 109.342 105.196 110.88C103.812 112.418 102.032 113.616 99.8569 114.473C97.7036 115.33 95.2537 115.758 92.5071 115.758ZM121.346 93.28V115H113.436V78.1519H121.181V84.3152H121.61C122.467 82.2937 123.785 80.6897 125.565 79.5032C127.345 78.2947 129.619 77.6904 132.387 77.6904C134.914 77.6904 137.123 78.2288 139.012 79.3054C140.902 80.3601 142.363 81.9202 143.396 83.9856C144.45 86.051 144.978 88.5779 144.978 91.5662V115H137.068V92.6868C137.068 90.116 136.397 88.1055 135.057 86.6553C133.739 85.2051 131.915 84.48 129.586 84.48C127.982 84.48 126.565 84.8315 125.334 85.5347C124.104 86.2158 123.126 87.2156 122.401 88.5339C121.698 89.8303 121.346 91.4124 121.346 93.28Z" fill="#222222" style="fill:#222222;fill:color(display-p3 0.1333 0.1333 0.1333);fill-opacity:1;"/>
</svg>
