<svg width="18" height="18" viewBox="0 0 18 18" fill="none" xmlns="http://www.w3.org/2000/svg">
    <style>
        path { fill: black; }
        @media (prefers-color-scheme: dark) {
          path { fill: white; }
        }
       
      </style>
    <path
        d="M6.5 17.5L6.1875 14.8333C6.0625 14.75 5.93056 14.6667 5.79167 14.5833C5.65278 14.5 5.52083 14.4236 5.39583 14.3542L2.91667 15.4167L0.395833 11.0833L2.52083 9.45833C2.53472 9.38889 2.54167 9.3125 2.54167 9.22917C2.54167 9.14583 2.54167 9.06944 2.54167 9C2.54167 8.93056 2.54167 8.85417 2.54167 8.77083C2.54167 8.6875 2.53472 8.61111 2.52083 8.54167L0.395833 6.91667L2.91667 2.60417L5.41667 3.64583C5.52778 3.57639 5.65278 3.5 5.79167 3.41667C5.93056 3.33333 6.0625 3.25694 6.1875 3.1875L6.5 0.499999H11.5L11.8125 3.1875C11.9375 3.25694 12.0694 3.33333 12.2083 3.41667C12.3472 3.5 12.4792 3.57639 12.6042 3.64583L15.0833 2.60417L17.6042 6.91667L15.4792 8.54167C15.4792 8.61111 15.4792 8.6875 15.4792 8.77083C15.4792 8.85417 15.4792 8.93056 15.4792 9C15.4792 9.06944 15.4792 9.14583 15.4792 9.22917C15.4792 9.3125 15.4792 9.38889 15.4792 9.45833L17.6042 11.0833L15.0833 15.4167L12.5833 14.3542C12.4722 14.4236 12.3472 14.5 12.2083 14.5833C12.0694 14.6667 11.9375 14.75 11.8125 14.8333L11.5 17.5H6.5ZM8.97917 11.9792C9.79861 11.9792 10.5 11.6875 11.0833 11.1042C11.6667 10.5208 11.9583 9.81944 11.9583 9C11.9583 8.18056 11.6667 7.47917 11.0833 6.89583C10.5 6.3125 9.79861 6.02083 8.97917 6.02083C8.17361 6.02083 7.47222 6.3125 6.875 6.89583C6.29167 7.47917 6 8.18056 6 9C6 9.81944 6.29167 10.5208 6.875 11.1042C7.47222 11.6875 8.17361 11.9792 8.97917 11.9792Z"
        
        />
</svg>
    