
<svg width="100" height="100" viewBox="0 0 100 100" fill="none" xmlns="http://www.w3.org/2000/svg">
    <style>
        g{
            color-scheme:light dark;
        }

        g{
           
            
            --background:light-dark(black, white);
            --foreground:light-dark(white, black);
        }
    
      </style>
   
    <g clip-path="url(#clip0_13956_3833)">
        <rect width="100" height="100" fill="inherit"
            style="fill:var(--background);;fill-opacity:0.2;" />
        <path
            d="M2.08986 41.2004C0.433415 35.0185 1.1844 29.1922 4.34281 23.7217C7.54836 18.1695 12.2421 14.5652 18.424 12.9088L19.8803 18.7302C15.3083 19.9553 11.8438 22.6091 9.48674 26.6916C7.17686 30.6924 6.63445 34.9788 7.85953 39.5509L2.08986 41.2004ZM29.7438 84.5191C22.3137 80.2293 17.4708 74.0039 15.2151 65.843C13.0237 57.6648 14.073 49.8607 18.3627 42.4306L24.5853 31.6528L28.6269 33.9863C30.3416 34.9762 31.4491 36.4049 31.9495 38.2724C32.5143 40.1226 32.2781 41.9458 31.241 43.7421L26.5741 51.8254L30.5709 54.378C32.7755 55.6508 34.2142 57.5429 34.8871 60.0543C35.5428 62.5013 35.2343 64.827 33.9615 67.0316L32.5473 69.4811L36.7114 71.8852L38.1256 69.4358C40.0584 66.0881 40.5244 62.5468 39.5236 58.8119C38.5228 55.077 36.3486 52.2432 33.001 50.3104L35.3085 46.1722C36.2985 44.4575 36.8589 42.6854 36.9899 40.8559C37.1036 38.9619 36.7837 37.2531 36.0304 35.7295L49.3947 12.5818L54.6611 15.6224L37.6198 45.1388L45.0908 49.4521L66.1177 13.1738L71.2617 16.1436L50.3313 52.3961L57.8281 56.806L76.8493 23.8604L82.0191 26.9268L63.0686 59.75L70.5655 64.1599L85.4854 38.3178L90.6552 41.3843L72.129 73.4726C67.8393 80.9027 61.5645 85.6898 53.3046 87.834C45.1092 89.961 37.2556 88.856 29.7438 84.5191ZM81.5758 87.0916L80.1195 81.2702C84.6915 80.0451 88.1325 77.4322 90.4424 73.4313C92.7994 69.3488 93.3654 65.0216 92.1403 60.4495L97.91 58.8C99.5664 64.9819 98.7919 70.849 95.5863 76.4012C92.4279 81.8717 87.7577 85.4352 81.5758 87.0916Z"
            fill="inherit"
            style="fill:var(--foreground);fill-opacity:1;" />
    </g>
    <defs>
        <clipPath id="clip0_13956_3833">
            <rect width="100" height="100" fill="white" style="fill:white;fill-opacity:1;" />
        </clipPath>
    </defs>
</svg>
    