{"accessors" : [{"bufferView" : 0, "byteOffset" : 0, "componentType" : 5123, "count" : 75000, "type" : "SCALAR", "max" : [14324], "min" : [0]}, {"bufferView" : 1, "byteOffset" : 0, "componentType" : 5126, "count" : 14325, "type" : "VEC3", "max" : [0.07584669440984726, 0.21464405953884125, 0.09787998348474503], "min" : [-0.07818388193845749, 2.9576174398471267E-08, -0.05039609596133232], "name" : "POSITION"}, {"bufferView" : 1, "byteOffset" : 12, "componentType" : 5126, "count" : 14325, "type" : "VEC3", "max" : [0.9996010065078735, 0.999984860420227, 0.999704897403717], "min" : [-0.9999843239784241, -0.9999873638153076, -0.9999310970306396], "name" : "NORMAL"}, {"bufferView" : 1, "byteOffset" : 24, "componentType" : 5126, "count" : 14325, "type" : "VEC2", "max" : [0.9978393316268921, 0.999842643737793], "min" : [3.1970917916623875E-05, 0.0001671314239501953], "name" : "TEXCOORD_0"}], "asset" : {"generator" : "Aspose.3D 24.2.0", "version" : "2.0"}, "buffers" : [{"uri" : "buffer.bin", "byteLength" : 9907324}], "bufferViews" : [{"buffer" : 0, "byteOffset" : 0, "byteLength" : 150000, "target" : 34963}, {"buffer" : 0, "byteOffset" : 150004, "byteLength" : 458400, "byteStride" : 32, "target" : 34962}, {"buffer" : 0, "byteOffset" : 608408, "byteLength" : 3402327}, {"buffer" : 0, "byteOffset" : 4010736, "byteLength" : 1085741}, {"buffer" : 0, "byteOffset" : 5096480, "byteLength" : 4810843}], "images" : [{"mimeType" : "image/png", "bufferView" : 2}, {"mimeType" : "image/png", "bufferView" : 3}, {"mimeType" : "image/png", "bufferView" : 4}], "materials" : [{"name" : "Texture", "pbrMetallicRoughness" : {"baseColorFactor" : [1, 1, 1, 1], "baseColorTexture" : {"index" : 2, "texCoord" : 0}, "metallicFactor" : 0, "roughnessFactor" : 0.8999999761581421}, "normalTexture" : {"index" : 0, "texCoord" : 0, "scale" : 1}, "occlusionTexture" : {"index" : 1, "texCoord" : 0, "strength" : 0}, "emissiveFactor" : [0, 0, 0], "alphaMode" : "OPAQUE", "doubleSided" : false}], "meshes" : [{"primitives" : [{"attributes" : {"POSITION" : 1, "NORMAL" : 2, "TEXCOORD_0" : 3}, "indices" : 0, "material" : 0, "mode" : 4}], "name" : "Mesh"}], "nodes" : [{"mesh" : 0, "name" : "ObjectCapture"}], "samplers" : [{"magFilter" : 9729, "minFilter" : 9729, "wrapS" : 10497, "wrapT" : 10497}, {"magFilter" : 9729, "minFilter" : 9729, "wrapS" : 10497, "wrapT" : 10497}, {"magFilter" : 9729, "minFilter" : 9729, "wrapS" : 10497, "wrapT" : 10497}], "scene" : 0, "scenes" : [{"nodes" : [0]}], "textures" : [{"sampler" : 0, "source" : 0, "name" : "normal_texture"}, {"sampler" : 1, "source" : 1, "name" : "occlusion_texture"}, {"sampler" : 2, "source" : 2, "name" : "diffuseColor_texture"}]}